<mxfile host="Electron" agent="Mozilla/5.0 (Macintosh; Intel Mac OS X 10_15_7) AppleWebKit/537.36 (KHTML, like Gecko) draw.io/28.0.6 Chrome/138.0.7204.100 Electron/37.2.3 Safari/537.36" version="28.0.6">
  <diagram name="Page-1" id="npxZxfRq8kWruTcD__TE">
    <mxGraphModel dx="2875" dy="1219" grid="1" gridSize="10" guides="1" tooltips="1" connect="1" arrows="1" fold="1" page="1" pageScale="1" pageWidth="850" pageHeight="1100" math="0" shadow="0">
      <root>
        <mxCell id="0" />
        <mxCell id="1" parent="0" />
        <mxCell id="2eGCh9Ey4JNRqI4_Rhg4-6" value="GitHub" style="swimlane;whiteSpace=wrap;html=1;" vertex="1" parent="1">
          <mxGeometry x="-840" y="20" width="680" height="380" as="geometry" />
        </mxCell>
        <mxCell id="2eGCh9Ey4JNRqI4_Rhg4-7" value="Organization - enpicie" style="swimlane;whiteSpace=wrap;html=1;" vertex="1" parent="2eGCh9Ey4JNRqI4_Rhg4-6">
          <mxGeometry x="20" y="40" width="640" height="320" as="geometry" />
        </mxCell>
        <mxCell id="2eGCh9Ey4JNRqI4_Rhg4-11" style="edgeStyle=orthogonalEdgeStyle;rounded=0;orthogonalLoop=1;jettySize=auto;html=1;entryX=0.5;entryY=0;entryDx=0;entryDy=0;" edge="1" parent="2eGCh9Ey4JNRqI4_Rhg4-7" source="2eGCh9Ey4JNRqI4_Rhg4-9" target="2eGCh9Ey4JNRqI4_Rhg4-10">
          <mxGeometry relative="1" as="geometry" />
        </mxCell>
        <mxCell id="2eGCh9Ey4JNRqI4_Rhg4-9" value="&lt;div&gt;&lt;span style=&quot;background-color: transparent; color: light-dark(rgb(0, 0, 0), rgb(255, 255, 255));&quot;&gt;&lt;u style=&quot;font-weight: bold;&quot;&gt;Org Secret var&lt;/u&gt;: TF_API_TOKEN&lt;/span&gt;&lt;/div&gt;" style="shape=parallelogram;perimeter=parallelogramPerimeter;whiteSpace=wrap;html=1;fixedSize=1;" vertex="1" parent="2eGCh9Ey4JNRqI4_Rhg4-7">
          <mxGeometry x="260" y="49" width="340" height="30" as="geometry" />
        </mxCell>
        <mxCell id="2eGCh9Ey4JNRqI4_Rhg4-10" value="" style="swimlane;startSize=0;" vertex="1" parent="2eGCh9Ey4JNRqI4_Rhg4-7">
          <mxGeometry x="240" y="99" width="380" height="180" as="geometry" />
        </mxCell>
        <mxCell id="2eGCh9Ey4JNRqI4_Rhg4-20" value="aws-terraform-oidc-config" style="rounded=0;whiteSpace=wrap;html=1;" vertex="1" parent="2eGCh9Ey4JNRqI4_Rhg4-10">
          <mxGeometry x="178" y="20" width="180" height="60" as="geometry" />
        </mxCell>
        <mxCell id="2eGCh9Ey4JNRqI4_Rhg4-37" value="hcp-tf-aws-role-lambda-apigw" style="rounded=0;whiteSpace=wrap;html=1;" vertex="1" parent="2eGCh9Ey4JNRqI4_Rhg4-10">
          <mxGeometry x="178" y="100" width="180" height="60" as="geometry" />
        </mxCell>
        <mxCell id="2eGCh9Ey4JNRqI4_Rhg4-45" value="startgg-bracket-helper-bot" style="rounded=0;whiteSpace=wrap;html=1;" vertex="1" parent="2eGCh9Ey4JNRqI4_Rhg4-10">
          <mxGeometry x="18" y="100" width="120" height="60" as="geometry" />
        </mxCell>
        <mxCell id="2eGCh9Ey4JNRqI4_Rhg4-47" value="" style="endArrow=none;dashed=1;html=1;dashPattern=1 3;strokeWidth=2;rounded=0;" edge="1" parent="2eGCh9Ey4JNRqI4_Rhg4-10">
          <mxGeometry width="50" height="50" relative="1" as="geometry">
            <mxPoint x="380" y="165" as="sourcePoint" />
            <mxPoint x="380" y="20" as="targetPoint" />
          </mxGeometry>
        </mxCell>
        <mxCell id="2eGCh9Ey4JNRqI4_Rhg4-62" style="edgeStyle=orthogonalEdgeStyle;rounded=0;orthogonalLoop=1;jettySize=auto;html=1;strokeColor=#BF93D5;" edge="1" parent="2eGCh9Ey4JNRqI4_Rhg4-7" source="2eGCh9Ey4JNRqI4_Rhg4-59">
          <mxGeometry relative="1" as="geometry">
            <mxPoint x="240" y="129" as="targetPoint" />
            <Array as="points">
              <mxPoint x="220" y="89" />
              <mxPoint x="220" y="129" />
              <mxPoint x="240" y="129" />
            </Array>
          </mxGeometry>
        </mxCell>
        <mxCell id="2eGCh9Ey4JNRqI4_Rhg4-59" value="action-workflow-hcp-terraform-workspace-setup" style="shape=document;whiteSpace=wrap;html=1;boundedLbl=1;" vertex="1" parent="2eGCh9Ey4JNRqI4_Rhg4-7">
          <mxGeometry x="20" y="59" width="180" height="60" as="geometry" />
        </mxCell>
        <mxCell id="2eGCh9Ey4JNRqI4_Rhg4-60" value="action-workflow-&lt;div&gt;hcp-terraform-run&lt;/div&gt;" style="shape=document;whiteSpace=wrap;html=1;boundedLbl=1;" vertex="1" parent="2eGCh9Ey4JNRqI4_Rhg4-7">
          <mxGeometry x="20" y="139" width="180" height="60" as="geometry" />
        </mxCell>
        <mxCell id="2eGCh9Ey4JNRqI4_Rhg4-61" value="action-workflow-hcp-terraform-var-set-attach" style="shape=document;whiteSpace=wrap;html=1;boundedLbl=1;" vertex="1" parent="2eGCh9Ey4JNRqI4_Rhg4-7">
          <mxGeometry x="20" y="219" width="180" height="60" as="geometry" />
        </mxCell>
        <mxCell id="2eGCh9Ey4JNRqI4_Rhg4-64" style="edgeStyle=orthogonalEdgeStyle;rounded=0;orthogonalLoop=1;jettySize=auto;html=1;entryX=-0.003;entryY=0.394;entryDx=0;entryDy=0;entryPerimeter=0;strokeColor=#BF93D5;" edge="1" parent="2eGCh9Ey4JNRqI4_Rhg4-7" source="2eGCh9Ey4JNRqI4_Rhg4-60" target="2eGCh9Ey4JNRqI4_Rhg4-10">
          <mxGeometry relative="1" as="geometry" />
        </mxCell>
        <mxCell id="2eGCh9Ey4JNRqI4_Rhg4-65" style="edgeStyle=orthogonalEdgeStyle;rounded=0;orthogonalLoop=1;jettySize=auto;html=1;entryX=-0.005;entryY=0.833;entryDx=0;entryDy=0;entryPerimeter=0;strokeColor=#BF93D5;" edge="1" parent="2eGCh9Ey4JNRqI4_Rhg4-7" source="2eGCh9Ey4JNRqI4_Rhg4-61" target="2eGCh9Ey4JNRqI4_Rhg4-10">
          <mxGeometry relative="1" as="geometry" />
        </mxCell>
        <mxCell id="2eGCh9Ey4JNRqI4_Rhg4-14" value="AWS" style="swimlane;whiteSpace=wrap;html=1;" vertex="1" parent="1">
          <mxGeometry x="-80" y="20" width="280" height="820" as="geometry" />
        </mxCell>
        <mxCell id="2eGCh9Ey4JNRqI4_Rhg4-15" value="IAM" style="swimlane;whiteSpace=wrap;html=1;" vertex="1" parent="2eGCh9Ey4JNRqI4_Rhg4-14">
          <mxGeometry x="20" y="40" width="240" height="500" as="geometry" />
        </mxCell>
        <mxCell id="2eGCh9Ey4JNRqI4_Rhg4-17" value="&lt;div&gt;&lt;b&gt;&lt;u&gt;OIDC Provider&lt;/u&gt;&lt;/b&gt;&lt;/div&gt;&lt;div&gt;GitHub&lt;/div&gt;" style="shape=manualInput;whiteSpace=wrap;html=1;" vertex="1" parent="2eGCh9Ey4JNRqI4_Rhg4-15">
          <mxGeometry x="40" y="40" width="160" height="70" as="geometry" />
        </mxCell>
        <mxCell id="2eGCh9Ey4JNRqI4_Rhg4-18" value="&lt;div&gt;&lt;b&gt;&lt;u&gt;IAM Role&lt;/u&gt;&lt;/b&gt;&lt;/div&gt;source: GitHub Actions&lt;div&gt;principal(s): IAM + CloudFormation&lt;/div&gt;" style="shape=manualInput;whiteSpace=wrap;html=1;" vertex="1" parent="2eGCh9Ey4JNRqI4_Rhg4-15">
          <mxGeometry x="40" y="140" width="160" height="70" as="geometry" />
        </mxCell>
        <mxCell id="2eGCh9Ey4JNRqI4_Rhg4-22" value="&lt;b&gt;&lt;u&gt;OIDC Provider&lt;/u&gt;&lt;/b&gt;&lt;div&gt;HCP Terraform&lt;/div&gt;" style="shape=parallelogram;perimeter=parallelogramPerimeter;whiteSpace=wrap;html=1;fixedSize=1;" vertex="1" parent="2eGCh9Ey4JNRqI4_Rhg4-15">
          <mxGeometry x="40" y="230" width="160" height="60" as="geometry" />
        </mxCell>
        <mxCell id="2eGCh9Ey4JNRqI4_Rhg4-26" value="&lt;b&gt;&lt;u&gt;IAM Role&lt;/u&gt;&lt;/b&gt;&lt;div&gt;source: HCP Terraform&lt;/div&gt;&lt;div&gt;principal(s): IAM&lt;/div&gt;" style="shape=parallelogram;perimeter=parallelogramPerimeter;whiteSpace=wrap;html=1;fixedSize=1;" vertex="1" parent="2eGCh9Ey4JNRqI4_Rhg4-15">
          <mxGeometry x="40" y="330" width="160" height="60" as="geometry" />
        </mxCell>
        <mxCell id="2eGCh9Ey4JNRqI4_Rhg4-27" value="" style="endArrow=classic;startArrow=classic;html=1;rounded=0;entryX=0.5;entryY=1;entryDx=0;entryDy=0;exitX=0.5;exitY=0;exitDx=0;exitDy=0;" edge="1" parent="2eGCh9Ey4JNRqI4_Rhg4-15" source="2eGCh9Ey4JNRqI4_Rhg4-26" target="2eGCh9Ey4JNRqI4_Rhg4-22">
          <mxGeometry width="50" height="50" relative="1" as="geometry">
            <mxPoint x="220" y="313" as="sourcePoint" />
            <mxPoint x="220" y="270" as="targetPoint" />
          </mxGeometry>
        </mxCell>
        <mxCell id="2eGCh9Ey4JNRqI4_Rhg4-33" value="" style="endArrow=classic;startArrow=classic;html=1;rounded=0;entryX=0.5;entryY=1;entryDx=0;entryDy=0;exitX=0.5;exitY=0;exitDx=0;exitDy=0;" edge="1" parent="2eGCh9Ey4JNRqI4_Rhg4-15" source="2eGCh9Ey4JNRqI4_Rhg4-18" target="2eGCh9Ey4JNRqI4_Rhg4-17">
          <mxGeometry width="50" height="50" relative="1" as="geometry">
            <mxPoint x="270" y="120" as="sourcePoint" />
            <mxPoint x="160" y="300" as="targetPoint" />
          </mxGeometry>
        </mxCell>
        <mxCell id="2eGCh9Ey4JNRqI4_Rhg4-42" style="edgeStyle=orthogonalEdgeStyle;rounded=0;orthogonalLoop=1;jettySize=auto;html=1;entryX=1;entryY=0.5;entryDx=0;entryDy=0;exitX=1;exitY=0.5;exitDx=0;exitDy=0;startArrow=classic;startFill=1;" edge="1" parent="2eGCh9Ey4JNRqI4_Rhg4-15" source="2eGCh9Ey4JNRqI4_Rhg4-41" target="2eGCh9Ey4JNRqI4_Rhg4-22">
          <mxGeometry relative="1" as="geometry">
            <Array as="points">
              <mxPoint x="220" y="450" />
              <mxPoint x="220" y="260" />
            </Array>
          </mxGeometry>
        </mxCell>
        <mxCell id="2eGCh9Ey4JNRqI4_Rhg4-41" value="&lt;b&gt;&lt;u&gt;IAM Role&lt;/u&gt;&lt;/b&gt;&lt;div&gt;source: HCP Terraform&lt;/div&gt;&lt;div&gt;principal(s): Lambda +&amp;nbsp;&lt;/div&gt;&lt;div&gt;API Gateway&lt;/div&gt;" style="shape=parallelogram;perimeter=parallelogramPerimeter;whiteSpace=wrap;html=1;fixedSize=1;" vertex="1" parent="2eGCh9Ey4JNRqI4_Rhg4-15">
          <mxGeometry x="40" y="420" width="160" height="60" as="geometry" />
        </mxCell>
        <mxCell id="2eGCh9Ey4JNRqI4_Rhg4-49" value="API Gateway" style="swimlane;whiteSpace=wrap;html=1;" vertex="1" parent="2eGCh9Ey4JNRqI4_Rhg4-14">
          <mxGeometry x="20" y="560" width="240" height="100" as="geometry" />
        </mxCell>
        <mxCell id="2eGCh9Ey4JNRqI4_Rhg4-52" value="Bot API Gateway" style="shape=parallelogram;perimeter=parallelogramPerimeter;whiteSpace=wrap;html=1;fixedSize=1;" vertex="1" parent="2eGCh9Ey4JNRqI4_Rhg4-49">
          <mxGeometry x="20" y="40" width="200" height="40" as="geometry" />
        </mxCell>
        <mxCell id="2eGCh9Ey4JNRqI4_Rhg4-50" value="Lambda" style="swimlane;whiteSpace=wrap;html=1;" vertex="1" parent="2eGCh9Ey4JNRqI4_Rhg4-14">
          <mxGeometry x="20" y="700" width="240" height="100" as="geometry" />
        </mxCell>
        <mxCell id="2eGCh9Ey4JNRqI4_Rhg4-53" value="Bot Command Processor&lt;div&gt;Lambda&lt;/div&gt;" style="shape=parallelogram;perimeter=parallelogramPerimeter;whiteSpace=wrap;html=1;fixedSize=1;" vertex="1" parent="2eGCh9Ey4JNRqI4_Rhg4-50">
          <mxGeometry x="20" y="40" width="200" height="40" as="geometry" />
        </mxCell>
        <mxCell id="2eGCh9Ey4JNRqI4_Rhg4-58" style="edgeStyle=orthogonalEdgeStyle;rounded=0;orthogonalLoop=1;jettySize=auto;html=1;strokeColor=#57FF71;" edge="1" parent="2eGCh9Ey4JNRqI4_Rhg4-14" source="2eGCh9Ey4JNRqI4_Rhg4-52">
          <mxGeometry relative="1" as="geometry">
            <mxPoint x="200" y="740" as="targetPoint" />
            <Array as="points">
              <mxPoint x="200" y="740" />
            </Array>
          </mxGeometry>
        </mxCell>
        <mxCell id="2eGCh9Ey4JNRqI4_Rhg4-34" style="edgeStyle=orthogonalEdgeStyle;rounded=0;orthogonalLoop=1;jettySize=auto;html=1;exitX=0;exitY=0.75;exitDx=0;exitDy=0;entryX=1;entryY=0.25;entryDx=0;entryDy=0;fillColor=#60a917;strokeColor=#57FF71;" edge="1" parent="1" source="2eGCh9Ey4JNRqI4_Rhg4-18" target="2eGCh9Ey4JNRqI4_Rhg4-20">
          <mxGeometry relative="1" as="geometry">
            <Array as="points">
              <mxPoint x="-20" y="243" />
              <mxPoint x="-100" y="243" />
              <mxPoint x="-100" y="194" />
            </Array>
          </mxGeometry>
        </mxCell>
        <mxCell id="2eGCh9Ey4JNRqI4_Rhg4-38" style="edgeStyle=orthogonalEdgeStyle;rounded=0;orthogonalLoop=1;jettySize=auto;html=1;fillColor=#60a917;strokeColor=#57FF71;exitX=0;exitY=0.75;exitDx=0;exitDy=0;" edge="1" parent="1" source="2eGCh9Ey4JNRqI4_Rhg4-26">
          <mxGeometry relative="1" as="geometry">
            <mxPoint x="-222" y="289" as="targetPoint" />
            <Array as="points">
              <mxPoint x="-15" y="430" />
              <mxPoint x="-140" y="430" />
              <mxPoint x="-140" y="289" />
            </Array>
          </mxGeometry>
        </mxCell>
        <mxCell id="2eGCh9Ey4JNRqI4_Rhg4-39" style="edgeStyle=orthogonalEdgeStyle;rounded=0;orthogonalLoop=1;jettySize=auto;html=1;entryX=0;entryY=0.5;entryDx=0;entryDy=0;fillColor=#1ba1e2;strokeColor=#71C4FF;" edge="1" parent="1" source="2eGCh9Ey4JNRqI4_Rhg4-20" target="2eGCh9Ey4JNRqI4_Rhg4-22">
          <mxGeometry relative="1" as="geometry">
            <Array as="points">
              <mxPoint x="-120" y="220" />
              <mxPoint x="-120" y="320" />
            </Array>
          </mxGeometry>
        </mxCell>
        <mxCell id="2eGCh9Ey4JNRqI4_Rhg4-40" style="edgeStyle=orthogonalEdgeStyle;rounded=0;orthogonalLoop=1;jettySize=auto;html=1;entryX=0;entryY=0.25;entryDx=0;entryDy=0;fillColor=#1ba1e2;strokeColor=#71C4FF;" edge="1" parent="1" source="2eGCh9Ey4JNRqI4_Rhg4-20" target="2eGCh9Ey4JNRqI4_Rhg4-26">
          <mxGeometry relative="1" as="geometry">
            <Array as="points">
              <mxPoint x="-120" y="220" />
              <mxPoint x="-120" y="408" />
            </Array>
          </mxGeometry>
        </mxCell>
        <mxCell id="2eGCh9Ey4JNRqI4_Rhg4-44" style="edgeStyle=orthogonalEdgeStyle;rounded=0;orthogonalLoop=1;jettySize=auto;html=1;entryX=0;entryY=0.25;entryDx=0;entryDy=0;fillColor=#1ba1e2;strokeColor=#71C4FF;" edge="1" parent="1" source="2eGCh9Ey4JNRqI4_Rhg4-37" target="2eGCh9Ey4JNRqI4_Rhg4-41">
          <mxGeometry relative="1" as="geometry">
            <Array as="points">
              <mxPoint x="-310" y="498" />
            </Array>
          </mxGeometry>
        </mxCell>
        <mxCell id="2eGCh9Ey4JNRqI4_Rhg4-48" style="edgeStyle=orthogonalEdgeStyle;rounded=0;orthogonalLoop=1;jettySize=auto;html=1;exitX=0;exitY=0.75;exitDx=0;exitDy=0;entryX=0.75;entryY=1;entryDx=0;entryDy=0;strokeColor=#57FF71;" edge="1" parent="1" source="2eGCh9Ey4JNRqI4_Rhg4-41" target="2eGCh9Ey4JNRqI4_Rhg4-45">
          <mxGeometry relative="1" as="geometry" />
        </mxCell>
        <mxCell id="2eGCh9Ey4JNRqI4_Rhg4-55" style="edgeStyle=orthogonalEdgeStyle;rounded=0;orthogonalLoop=1;jettySize=auto;html=1;entryX=0;entryY=0.5;entryDx=0;entryDy=0;strokeColor=#71C4FF;" edge="1" parent="1" source="2eGCh9Ey4JNRqI4_Rhg4-45" target="2eGCh9Ey4JNRqI4_Rhg4-52">
          <mxGeometry relative="1" as="geometry">
            <Array as="points">
              <mxPoint x="-530" y="640" />
            </Array>
          </mxGeometry>
        </mxCell>
        <mxCell id="2eGCh9Ey4JNRqI4_Rhg4-56" style="edgeStyle=orthogonalEdgeStyle;rounded=0;orthogonalLoop=1;jettySize=auto;html=1;entryX=0;entryY=0.5;entryDx=0;entryDy=0;strokeColor=#71C4FF;" edge="1" parent="1" source="2eGCh9Ey4JNRqI4_Rhg4-45" target="2eGCh9Ey4JNRqI4_Rhg4-53">
          <mxGeometry relative="1" as="geometry">
            <Array as="points">
              <mxPoint x="-530" y="780" />
            </Array>
          </mxGeometry>
        </mxCell>
        <mxCell id="2eGCh9Ey4JNRqI4_Rhg4-68" style="edgeStyle=orthogonalEdgeStyle;rounded=0;orthogonalLoop=1;jettySize=auto;html=1;entryX=1;entryY=0.5;entryDx=0;entryDy=0;strokeColor=#57FF71;" edge="1" parent="1" source="2eGCh9Ey4JNRqI4_Rhg4-66" target="2eGCh9Ey4JNRqI4_Rhg4-67">
          <mxGeometry relative="1" as="geometry" />
        </mxCell>
        <mxCell id="2eGCh9Ey4JNRqI4_Rhg4-66" value="" style="shape=actor;whiteSpace=wrap;html=1;" vertex="1" parent="1">
          <mxGeometry x="600" y="610" width="40" height="60" as="geometry" />
        </mxCell>
        <mxCell id="2eGCh9Ey4JNRqI4_Rhg4-71" style="edgeStyle=orthogonalEdgeStyle;rounded=0;orthogonalLoop=1;jettySize=auto;html=1;strokeColor=#57FF71;" edge="1" parent="1" source="2eGCh9Ey4JNRqI4_Rhg4-67" target="2eGCh9Ey4JNRqI4_Rhg4-69">
          <mxGeometry relative="1" as="geometry" />
        </mxCell>
        <mxCell id="2eGCh9Ey4JNRqI4_Rhg4-67" value="Discord" style="rounded=0;whiteSpace=wrap;html=1;" vertex="1" parent="1">
          <mxGeometry x="420" y="610" width="120" height="60" as="geometry" />
        </mxCell>
        <mxCell id="2eGCh9Ey4JNRqI4_Rhg4-70" style="edgeStyle=orthogonalEdgeStyle;rounded=0;orthogonalLoop=1;jettySize=auto;html=1;entryX=1;entryY=0.5;entryDx=0;entryDy=0;strokeColor=#57FF71;" edge="1" parent="1" source="2eGCh9Ey4JNRqI4_Rhg4-69" target="2eGCh9Ey4JNRqI4_Rhg4-52">
          <mxGeometry relative="1" as="geometry" />
        </mxCell>
        <mxCell id="2eGCh9Ey4JNRqI4_Rhg4-69" value="Bot Command" style="shape=parallelogram;perimeter=parallelogramPerimeter;whiteSpace=wrap;html=1;fixedSize=1;" vertex="1" parent="1">
          <mxGeometry x="240" y="610" width="120" height="60" as="geometry" />
        </mxCell>
        <mxCell id="2eGCh9Ey4JNRqI4_Rhg4-74" style="edgeStyle=orthogonalEdgeStyle;rounded=0;orthogonalLoop=1;jettySize=auto;html=1;entryX=0.5;entryY=1;entryDx=0;entryDy=0;strokeColor=#71C4FF;" edge="1" parent="1" source="2eGCh9Ey4JNRqI4_Rhg4-72" target="2eGCh9Ey4JNRqI4_Rhg4-67">
          <mxGeometry relative="1" as="geometry" />
        </mxCell>
        <mxCell id="2eGCh9Ey4JNRqI4_Rhg4-72" value="Bot Output" style="shape=parallelogram;perimeter=parallelogramPerimeter;whiteSpace=wrap;html=1;fixedSize=1;" vertex="1" parent="1">
          <mxGeometry x="240" y="750" width="120" height="60" as="geometry" />
        </mxCell>
        <mxCell id="2eGCh9Ey4JNRqI4_Rhg4-73" style="edgeStyle=orthogonalEdgeStyle;rounded=0;orthogonalLoop=1;jettySize=auto;html=1;strokeColor=#71C4FF;" edge="1" parent="1" source="2eGCh9Ey4JNRqI4_Rhg4-53" target="2eGCh9Ey4JNRqI4_Rhg4-72">
          <mxGeometry relative="1" as="geometry" />
        </mxCell>
        <mxCell id="2eGCh9Ey4JNRqI4_Rhg4-75" value="&lt;b&gt;&lt;u&gt;action-workflow-... Repos&lt;/u&gt;&lt;/b&gt;&lt;div&gt;&lt;b&gt;&lt;br&gt;&lt;/b&gt;&lt;/div&gt;&lt;div&gt;These hold .yml configs for GitHub Actions composite workflows containing reusable actions affecting HCP Terraform.&lt;/div&gt;&lt;div&gt;&lt;br&gt;&lt;/div&gt;&lt;div&gt;&lt;b&gt;These require TF_API_TOKEN secret for auth to do anything.&lt;/b&gt;&lt;/div&gt;&lt;div&gt;&lt;b&gt;&lt;br&gt;&lt;/b&gt;&lt;/div&gt;&lt;div&gt;Also accepts other inputs as required for the tasks.&lt;/div&gt;&lt;div&gt;&lt;br&gt;&lt;/div&gt;&lt;div&gt;&lt;b&gt;HCP Terraform Variable Sets &lt;/b&gt;are used to inject the IAM Role ARNs into Terraform runs to provide auth to provision AWS resources.&lt;/div&gt;" style="shape=note;whiteSpace=wrap;html=1;backgroundOutline=1;darkOpacity=0.05;fillColor=#d80073;fontColor=#ffffff;strokeColor=#A50040;" vertex="1" parent="1">
          <mxGeometry x="-820" y="440" width="220" height="260" as="geometry" />
        </mxCell>
        <mxCell id="2eGCh9Ey4JNRqI4_Rhg4-76" value="" style="endArrow=classic;html=1;rounded=0;strokeColor=#57FF71;" edge="1" parent="1">
          <mxGeometry width="50" height="50" relative="1" as="geometry">
            <mxPoint x="280" y="332.5" as="sourcePoint" />
            <mxPoint x="350" y="332.5" as="targetPoint" />
          </mxGeometry>
        </mxCell>
        <mxCell id="2eGCh9Ey4JNRqI4_Rhg4-77" value="&lt;b&gt;=&amp;nbsp; input&lt;/b&gt;" style="text;html=1;align=left;verticalAlign=middle;whiteSpace=wrap;rounded=0;" vertex="1" parent="1">
          <mxGeometry x="360" y="317.5" width="60" height="30" as="geometry" />
        </mxCell>
        <mxCell id="2eGCh9Ey4JNRqI4_Rhg4-78" value="" style="endArrow=classic;html=1;rounded=0;strokeColor=#71C4FF;fontColor=#71C4FF;" edge="1" parent="1">
          <mxGeometry width="50" height="50" relative="1" as="geometry">
            <mxPoint x="280" y="387.5" as="sourcePoint" />
            <mxPoint x="350" y="387.5" as="targetPoint" />
          </mxGeometry>
        </mxCell>
        <mxCell id="2eGCh9Ey4JNRqI4_Rhg4-79" value="&lt;b&gt;=&amp;nbsp; output&lt;/b&gt;" style="text;html=1;align=left;verticalAlign=middle;whiteSpace=wrap;rounded=0;" vertex="1" parent="1">
          <mxGeometry x="360" y="372.5" width="60" height="30" as="geometry" />
        </mxCell>
        <mxCell id="2eGCh9Ey4JNRqI4_Rhg4-80" value="" style="swimlane;startSize=0;" vertex="1" parent="1">
          <mxGeometry x="240" y="290" width="220" height="140" as="geometry" />
        </mxCell>
        <mxCell id="2eGCh9Ey4JNRqI4_Rhg4-81" value="HCP Terraform" style="swimlane;whiteSpace=wrap;html=1;" vertex="1" parent="1">
          <mxGeometry x="-840" y="840" width="680" height="180" as="geometry" />
        </mxCell>
        <mxCell id="2eGCh9Ey4JNRqI4_Rhg4-83" value="&lt;b&gt;&lt;u&gt;Variable Set&lt;/u&gt;&lt;/b&gt;&lt;div&gt;TFC_AWS_RUN_ROLE_ARN:&lt;/div&gt;&lt;div&gt;IAM Perms Role ARN&lt;/div&gt;" style="shape=parallelogram;perimeter=parallelogramPerimeter;whiteSpace=wrap;html=1;fixedSize=1;" vertex="1" parent="2eGCh9Ey4JNRqI4_Rhg4-81">
          <mxGeometry x="418" y="60" width="220" height="80" as="geometry" />
        </mxCell>
        <mxCell id="2eGCh9Ey4JNRqI4_Rhg4-86" value="&lt;b&gt;&lt;u&gt;Variable Set&lt;/u&gt;&lt;/b&gt;&lt;div&gt;TFC_AWS_RUN_ROLE_ARN:&lt;/div&gt;&lt;div&gt;IAM Perms Role ARN&lt;/div&gt;" style="shape=parallelogram;perimeter=parallelogramPerimeter;whiteSpace=wrap;html=1;fixedSize=1;" vertex="1" parent="2eGCh9Ey4JNRqI4_Rhg4-81">
          <mxGeometry x="40" y="60" width="220" height="80" as="geometry" />
        </mxCell>
        <mxCell id="2eGCh9Ey4JNRqI4_Rhg4-84" style="edgeStyle=orthogonalEdgeStyle;rounded=0;orthogonalLoop=1;jettySize=auto;html=1;entryX=0.5;entryY=0;entryDx=0;entryDy=0;strokeColor=#71C4FF;jumpStyle=arc;jumpSize=12;" edge="1" parent="1" source="2eGCh9Ey4JNRqI4_Rhg4-20" target="2eGCh9Ey4JNRqI4_Rhg4-83">
          <mxGeometry relative="1" as="geometry">
            <Array as="points">
              <mxPoint x="-420" y="209" />
              <mxPoint x="-420" y="810" />
              <mxPoint x="-312" y="810" />
            </Array>
          </mxGeometry>
        </mxCell>
        <mxCell id="2eGCh9Ey4JNRqI4_Rhg4-85" style="edgeStyle=orthogonalEdgeStyle;rounded=0;orthogonalLoop=1;jettySize=auto;html=1;exitX=0.75;exitY=0;exitDx=0;exitDy=0;entryX=0.817;entryY=1.033;entryDx=0;entryDy=0;entryPerimeter=0;strokeColor=#57FF71;jumpStyle=arc;jumpSize=12;" edge="1" parent="1" source="2eGCh9Ey4JNRqI4_Rhg4-83" target="2eGCh9Ey4JNRqI4_Rhg4-37">
          <mxGeometry relative="1" as="geometry" />
        </mxCell>
        <mxCell id="2eGCh9Ey4JNRqI4_Rhg4-87" style="edgeStyle=orthogonalEdgeStyle;rounded=0;orthogonalLoop=1;jettySize=auto;html=1;exitX=0.25;exitY=1;exitDx=0;exitDy=0;strokeColor=#71C4FF;jumpStyle=arc;jumpSize=12;entryX=1;entryY=0.75;entryDx=0;entryDy=0;" edge="1" parent="1" source="2eGCh9Ey4JNRqI4_Rhg4-37" target="2eGCh9Ey4JNRqI4_Rhg4-86">
          <mxGeometry relative="1" as="geometry">
            <mxPoint x="-480" y="900" as="targetPoint" />
            <Array as="points">
              <mxPoint x="-357" y="610" />
              <mxPoint x="-480" y="610" />
              <mxPoint x="-480" y="957" />
            </Array>
          </mxGeometry>
        </mxCell>
        <mxCell id="2eGCh9Ey4JNRqI4_Rhg4-88" style="edgeStyle=orthogonalEdgeStyle;rounded=0;orthogonalLoop=1;jettySize=auto;html=1;strokeColor=#57FF71;exitX=1;exitY=0.25;exitDx=0;exitDy=0;" edge="1" parent="1" source="2eGCh9Ey4JNRqI4_Rhg4-86">
          <mxGeometry relative="1" as="geometry">
            <mxPoint x="-548" y="900" as="sourcePoint" />
            <mxPoint x="-548" y="320" as="targetPoint" />
            <Array as="points">
              <mxPoint x="-548" y="920" />
            </Array>
          </mxGeometry>
        </mxCell>
        <mxCell id="2eGCh9Ey4JNRqI4_Rhg4-89" value="&lt;b&gt;All outputs from repos are provisioned via&lt;/b&gt;&lt;div&gt;&lt;b&gt;Terraform runs executed via HCP Terraform.&lt;/b&gt;&lt;/div&gt;&lt;div&gt;&lt;b&gt;&lt;br&gt;&lt;/b&gt;&lt;/div&gt;&lt;div&gt;action-workflow-hcp-terraform-run defines a generic composite action that executes a run for a given workspace/repo.&lt;/div&gt;" style="shape=note;whiteSpace=wrap;html=1;backgroundOutline=1;darkOpacity=0.05;fillColor=#d80073;fontColor=#ffffff;strokeColor=#A50040;" vertex="1" parent="1">
          <mxGeometry x="-100" y="880" width="320" height="120" as="geometry" />
        </mxCell>
        <mxCell id="2eGCh9Ey4JNRqI4_Rhg4-90" value="&lt;font style=&quot;color: rgb(255, 255, 255);&quot;&gt;Boxes with the slanted top represent manual inputs.&lt;/font&gt;&lt;div&gt;&lt;font style=&quot;color: rgb(255, 255, 255);&quot;&gt;&lt;br&gt;&lt;/font&gt;&lt;/div&gt;&lt;div&gt;&lt;font style=&quot;color: rgb(255, 255, 255);&quot;&gt;The initial OIDC Provider for GitHub Actions and the initial IAM Role are a &lt;b&gt;one-time only manual setup&lt;/b&gt;&amp;nbsp;to initiate the ability to provision entities in AWS.&lt;/font&gt;&lt;/div&gt;" style="shape=note;whiteSpace=wrap;html=1;backgroundOutline=1;darkOpacity=0.05;fillColor=#d80073;fontColor=#ffffff;strokeColor=#A50040;" vertex="1" parent="1">
          <mxGeometry x="240" y="110" width="220" height="140" as="geometry" />
        </mxCell>
      </root>
    </mxGraphModel>
  </diagram>
</mxfile>
